# xmcd CD database file
#
# Track frame offsets:
#	150
#	12007
#	25932
#	38790
#	50680
#	65390
#	79387
#	92634
#	107456
#	121959
#	136594
#	154685
#	166178
#	180545
#	192289
#	206973
#	221544
#	236742
#	251291
#	268406
#
# Disc length: 3766 seconds
#
# Revision: 5
# Processed by: cddbd v1.5.2PL0 Copyright (c) Steve Scherf et al.
# Submitted via: CDex 1.70beta2
#
DISCID=0f0eb414
DTITLE=Ella Fitzgerald - Ella Fitzgerald Sings Her Favorite Songbook
DYEAR=1165
DGENRE=Jazz
TTITLE0=Nice Work If You Can Get It
TTITLE1=Dream A Little Dream Of Me
TTITLE2=Lullaby Of Birdland
TTITLE3=My Heart Belongs To Daddy
TTITLE4=Someone To Watch Over Me
TTITLE5=Smooth Sailing
TTITLE6=Until The Real Thing Comes Along
TTITLE7=I've Got The World On A String
TTITLE8=But Not For Me
TTITLE9=I've Got A Crush On You
TTITLE10=Stardust
TTITLE11=Necessary Evil (With Louis Armstrong)
TTITLE12=People Will Say We're In Love
TTITLE13=Imagination
TTITLE14=My One And Only
TTITLE15=Early Autumn
TTITLE16=What Is There To Say?
TTITLE17=I Don't Want To Take A Change
TTITLE18=Baby What Else Can I Do
TTITLE19=I'm Glad There Is You
EXTD=YEAR: 1165
EXTT0=
EXTT1=
EXTT2=
EXTT3=
EXTT4=
EXTT5=
EXTT6=
EXTT7=
EXTT8=
EXTT9=
EXTT10=
EXTT11=
EXTT12=
EXTT13=
EXTT14=
EXTT15=
EXTT16=
EXTT17=
EXTT18=
EXTT19=
PLAYORDER=
